<?xml version="1.0" standalone="yes"?>
<svg xmlns="http://www.w3.org/2000/svg" width="1008" height="995">
<path style="fill:#f47521;" d="M536 994C532.143 991.365 526.593 991.566 522 991.05C513.296 990.073 504.669 989.174 496 987.866C469.625 983.885 443.086 977.114 418 967.947C319.026 931.78 234.518 863.482 181.424 772C155.057 726.568 135.6 674.182 128.718 622C121.231 565.229 121.928 506.63 137.152 451C157.399 377.015 194.976 310.472 248.039 255C325.801 173.709 437.362 126.928 549 122.039C620.451 118.911 693.715 135.153 758 166.258C862.161 216.658 942.62 308.299 981.308 417C988.087 436.047 994.54 456.027 997.806 476C999.49 486.3 1001.47 496.628 1002.71 507C1003.47 513.305 1003.19 519.884 1005 526C1008.68 521.504 1008 515.541 1008 510C1008 498.616 1007 487.342 1007 476C1007 421.756 993.06 365.157 973 315C925.927 197.302 833.425 99.3011 718 46.3087C678.638 28.2372 637.296 15.8961 595 7.11963C567.042 1.31824 537.424 1 509 1C494.432 1 479.533 0.0942383 465 1.08948C394.566 5.9129 326.629 26.4123 264 58.7415C208.238 87.5263 158.72 128.553 117.87 176C78.2375 222.031 48.654 275.222 27.4244 332C10.2444 377.947 3.09324 426.298 0.960648 475C-1.65067 534.635 4.37294 595.054 23.3549 652C47.6188 724.792 89.0295 792.464 143.004 847C244.973 950.031 391.597 1005.4 536 994z"/>
<path style="fill:#f47521;" d="M939 520C932 522.712 927.312 528.881 922 533.961C914.257 541.365 905.878 548.254 897 554.255C866.723 574.719 829.243 583.293 793 579.83C710.377 571.936 644.386 494.827 650.089 412C651.438 392.423 657.522 372.497 666.27 355C678.79 329.96 698.594 307.459 722 292.079C728.013 288.127 734.468 284.332 741 281.309C746.424 278.8 752.362 276.843 757 273C713.883 247.834 661.305 236.12 612 233.961C577.132 232.434 543.231 233.765 509 241.499C398.759 266.408 305 345.504 262.011 450C226.184 537.086 226.848 640.049 266.309 726C283.729 763.943 307.497 797.667 336.09 827.996C358.588 851.861 386.613 871.654 415 887.85C523.731 949.885 666.616 947.98 774 883.551C823.48 853.864 865.118 812.187 895.189 763C913.977 732.268 927.606 698.059 935.651 663C942.525 633.046 944 603.661 944 573C944 555.666 944.282 536.704 939 520z"/>
</svg>
